<svg width="24" height="24" viewBox="0 0 24 24" fill="none" xmlns="http://www.w3.org/2000/svg">
<mask id="mask0_1_73" style="mask-type:alpha" maskUnits="userSpaceOnUse" x="2" y="2" width="21" height="20">
<path d="M12.24 2C6.72 2 2.25 6.48 2.25 12C2.25 17.52 6.72 22 12.24 22C17.77 22 22.25 17.52 22.25 12C22.25 6.48 17.77 2 12.24 2ZM15.47 17.39L12.25 15.45L9.03 17.39C8.94575 17.4411 8.84833 17.4663 8.74987 17.4624C8.65141 17.4585 8.55626 17.4258 8.4763 17.3682C8.39633 17.3106 8.33508 17.2308 8.30017 17.1386C8.26526 17.0465 8.25825 16.9461 8.28 16.85L9.13 13.19L6.3 10.74C6.22649 10.6745 6.17372 10.589 6.14818 10.4939C6.12265 10.3988 6.12546 10.2984 6.15627 10.2049C6.18708 10.1114 6.24455 10.0289 6.32161 9.96762C6.39867 9.90636 6.49196 9.86895 6.59 9.86L10.33 9.54L11.79 6.09C11.96 5.68 12.54 5.68 12.71 6.09L14.17 9.53L17.91 9.85C18.0084 9.85846 18.1022 9.89589 18.1793 9.95757C18.2565 10.0192 18.3137 10.1024 18.3437 10.1966C18.3736 10.2907 18.375 10.3916 18.3477 10.4866C18.3203 10.5815 18.2655 10.6662 18.19 10.73L15.36 13.18L16.21 16.85C16.31 17.28 15.85 17.62 15.47 17.39Z" fill="black"/>
</mask>
<g mask="url(#mask0_1_73)">
<rect x="1" y="1" width="23" height="21" fill="#202020"/>
</g>
</svg>
