<svg width="32" height="14" viewBox="0 0 32 14" fill="none" xmlns="http://www.w3.org/2000/svg">
<path fill-rule="evenodd" clip-rule="evenodd" d="M6.22648 1.77715C5.85717 2.23168 5.26626 2.59019 4.67535 2.53897C4.60149 1.92439 4.89078 1.2714 5.22933 0.86808C5.59864 0.400742 6.24495 0.0678439 6.76815 0.0422363C6.8297 0.682425 6.58965 1.30981 6.22648 1.77715ZM6.76122 2.66169C6.24064 2.63053 5.76563 2.82452 5.38195 2.98122C5.13505 3.08205 4.92597 3.16744 4.7669 3.16744C4.58839 3.16744 4.37068 3.07749 4.12623 2.97649C3.80593 2.84415 3.43974 2.69284 3.05573 2.7001C2.17552 2.71291 1.35686 3.23146 0.907528 4.0573C-0.0157671 5.70899 0.667471 8.15451 1.55999 9.49891C1.99702 10.1647 2.52022 10.8945 3.20961 10.8689C3.5129 10.857 3.73107 10.7607 3.95686 10.6611C4.2168 10.5464 4.48683 10.4272 4.90847 10.4272C5.31549 10.4272 5.57372 10.5433 5.8216 10.6547C6.05729 10.7606 6.28363 10.8623 6.61964 10.8561C7.33366 10.8433 7.783 10.1903 8.22002 9.52452C8.69164 8.80995 8.89889 8.11256 8.93035 8.00671L8.93035 8.0067L8.93404 7.99446C8.93361 7.99402 8.93158 7.99295 8.92806 7.99123L8.91717 7.98601C8.75951 7.91094 7.5545 7.33718 7.54294 5.79862C7.53134 4.50721 8.49874 3.85291 8.65102 3.74991C8.66029 3.74364 8.66653 3.73941 8.66936 3.73721C8.05383 2.78973 7.0936 2.6873 6.76122 2.66169ZM11.7005 10.7847V0.804118H15.3013C17.1602 0.804118 18.459 2.13571 18.459 4.08188C18.459 6.02806 17.1356 7.37245 15.2521 7.37245H13.1901V10.7847H11.7005ZM13.1968 2.11092H14.9141C16.2068 2.11092 16.9454 2.82793 16.9454 4.0891C16.9454 5.35027 16.2068 6.07369 14.908 6.07369H13.1968V2.11092ZM23.377 9.5874C22.9831 10.3684 22.1152 10.8614 21.1796 10.8614C19.7946 10.8614 18.8282 10.0035 18.8282 8.71035C18.8282 7.42997 19.7639 6.69375 21.4935 6.58492L23.3524 6.46969V5.91913C23.3524 5.10609 22.8415 4.66436 21.9305 4.66436C21.1796 4.66436 20.6318 5.06767 20.521 5.68226H19.1791C19.2222 4.38907 20.3917 3.448 21.9736 3.448C23.6786 3.448 24.7866 4.37627 24.7866 5.81669V10.7846H23.4078V9.5874H23.377ZM21.5829 9.67604C20.7889 9.67604 20.2841 9.27913 20.2841 8.67095C20.2841 8.04356 20.7704 7.67866 21.6998 7.62104L23.3556 7.51221V8.07557C23.3556 9.01025 22.5924 9.67604 21.5829 9.67604ZM29.3644 11.1749C28.7673 12.9226 28.0841 13.4988 26.6314 13.4988C26.5207 13.4988 26.1513 13.486 26.0652 13.4604V12.2632C26.1575 12.276 26.3852 12.2888 26.5022 12.2888C27.1608 12.2888 27.5301 12.0008 27.7579 11.2517L27.8933 10.81L25.3696 3.54386H26.9269L28.6812 9.44H28.7119L30.4662 3.54386H31.9804L29.3644 11.1749Z" fill="black"/>
</svg>
