<svg width="32" height="14" viewBox="0 0 32 14" fill="none" xmlns="http://www.w3.org/2000/svg">
<path fill-rule="evenodd" clip-rule="evenodd" d="M14.9892 11.0559V7.26529H16.9493C17.7525 7.26529 18.4305 6.99666 18.9831 6.46687L19.1158 6.33256C20.1253 5.23568 20.059 3.52693 18.9831 2.51212C18.4452 1.97488 17.7083 1.68387 16.9493 1.69879H13.8029V11.0559H14.9892ZM14.9858 6.1169V2.84863H16.9757C17.4031 2.84863 17.8085 3.01279 18.1106 3.31126C18.7518 3.93805 18.7666 4.98271 18.1475 5.63188C17.8453 5.95274 17.4179 6.13182 16.9757 6.1169H14.9858ZM24.6494 5.15369C24.141 4.6836 23.4483 4.44482 22.5714 4.44482C21.444 4.44482 20.5966 4.86268 20.0366 5.69094L21.0829 6.35504C21.4661 5.78795 21.9893 5.5044 22.6525 5.5044C23.0725 5.5044 23.4778 5.6611 23.7947 5.94464C24.1041 6.21327 24.281 6.60128 24.281 7.01168V7.28777C23.8241 7.03407 23.2494 6.89975 22.542 6.89975C21.7166 6.89975 21.0535 7.09376 20.5597 7.48924C20.066 7.88471 19.8155 8.40704 19.8155 9.07114C19.8008 9.67554 20.0587 10.2501 20.5155 10.6381C20.9798 11.056 21.5693 11.2649 22.2619 11.2649C23.0799 11.2649 23.7283 10.8993 24.222 10.168H24.2736V11.056H25.4084V7.10869C25.4084 6.28043 25.1579 5.62379 24.6494 5.15369ZM21.4288 9.87826C21.1856 9.69917 21.0382 9.40816 21.0382 9.09477C21.0382 8.74406 21.2004 8.45305 21.5173 8.22174C21.8416 7.99042 22.2469 7.87103 22.726 7.87103C23.3893 7.86357 23.9052 8.01281 24.2737 8.31128C24.2737 8.81868 24.0747 9.25893 23.6841 9.63202C23.3303 9.99018 22.8513 10.1917 22.3501 10.1917C22.0184 10.1991 21.6942 10.0872 21.4288 9.87826ZM27.9604 13.8678L31.9248 4.65251H30.6353L28.8004 9.24897H28.7783L26.8993 4.65251H25.6097L28.2109 10.6443L26.7372 13.8678H27.9604Z" fill="#3C4043"/>
<path d="M10.8949 6.44269C10.8949 6.07707 10.8654 5.71144 10.8065 5.35327H5.80304V7.42019H8.66951C8.55161 8.08429 8.16843 8.68123 7.6084 9.05432V10.3974H9.31797C10.3201 9.46472 10.8949 8.08429 10.8949 6.44269Z" fill="#4285F4"/>
<path d="M5.79943 11.6965C7.22898 11.6965 8.43746 11.219 9.31435 10.3982L7.60479 9.05505C7.12582 9.38337 6.5142 9.56991 5.79943 9.56991C4.41409 9.56991 3.24245 8.62226 2.82243 7.35376H1.06128V8.74165C1.96027 10.5549 3.79511 11.6965 5.79943 11.6965Z" fill="#34A853"/>
<path d="M2.82588 7.35248C2.60478 6.68838 2.60478 5.96459 2.82588 5.29303V3.9126H1.06445C0.30534 5.42734 0.30534 7.21817 1.06445 8.73292L2.82588 7.35248Z" fill="#FBBC04"/>
<path d="M5.79943 3.07786C6.55842 3.06294 7.28793 3.35395 7.83322 3.88374L9.3512 2.34661C8.38588 1.43627 7.11845 0.936329 5.79943 0.951252C3.79511 0.951252 1.96027 2.10037 1.06128 3.91358L2.82243 5.30148C3.24245 4.02551 4.41409 3.07786 5.79943 3.07786Z" fill="#EA4335"/>
</svg>
