<svg width="30" height="18" viewBox="0 0 30 18" fill="none" xmlns="http://www.w3.org/2000/svg">
<path fill-rule="evenodd" clip-rule="evenodd" d="M14.8317 15.7369C13.2994 17.0261 11.3117 17.8044 9.13969 17.8044C4.29339 17.8044 0.364685 13.9298 0.364685 9.15026C0.364685 4.3707 4.29339 0.496094 9.13969 0.496094C11.3118 0.496094 13.2995 1.2744 14.8318 2.56367C16.3642 1.27445 18.3519 0.496175 20.5239 0.496175C25.3702 0.496175 29.2989 4.37078 29.2989 9.15034C29.2989 13.9299 25.3702 17.8045 20.5239 17.8045C18.3518 17.8045 16.3641 17.0262 14.8317 15.7369Z" fill="#ED0006"/>
<path fill-rule="evenodd" clip-rule="evenodd" d="M14.8347 15.7371C16.7213 14.1498 17.9176 11.7879 17.9176 9.1505C17.9176 6.51307 16.7213 4.1512 14.8347 2.56387C16.367 1.27463 18.3548 0.496338 20.5268 0.496338C25.3731 0.496338 29.3018 4.37094 29.3018 9.1505C29.3018 13.9301 25.3731 17.8047 20.5268 17.8047C18.3548 17.8047 16.367 17.0264 14.8347 15.7371Z" fill="#F9A000"/>
<path fill-rule="evenodd" clip-rule="evenodd" d="M14.8351 15.7343C16.7217 14.147 17.918 11.7851 17.918 9.14767C17.918 6.51024 16.7217 4.14837 14.8351 2.56104C12.9484 4.14837 11.7521 6.51024 11.7521 9.14767C11.7521 11.7851 12.9484 14.147 14.8351 15.7343Z" fill="#FF5E00"/>
</svg>
