<svg width="15" height="18" viewBox="0 0 15 18" fill="none" xmlns="http://www.w3.org/2000/svg">
<path fill-rule="evenodd" clip-rule="evenodd" d="M4.70912 16.8297L4.99476 14.958L4.35845 14.9426H1.31995L3.4316 1.13005C3.43818 1.08823 3.45945 1.0494 3.4905 1.02178C3.52172 0.994156 3.56149 0.979004 3.60311 0.979004H8.72649C10.4275 0.979004 11.6013 1.34408 12.214 2.06475C12.5014 2.40283 12.6844 2.75622 12.7729 3.14497C12.8658 3.55297 12.8673 4.04037 12.7768 4.63493L12.7702 4.67818V5.05919L13.0575 5.22713C13.2994 5.35955 13.4917 5.51107 13.6392 5.68453C13.8849 5.97369 14.0439 6.34113 14.111 6.77659C14.1805 7.22453 14.1576 7.75769 14.0439 8.36125C13.9128 9.05541 13.7009 9.66008 13.4146 10.1547C13.1515 10.6106 12.8161 10.9887 12.4178 11.2817C12.0376 11.5601 11.586 11.7714 11.0753 11.9067C10.5803 12.0396 10.0161 12.1067 9.39723 12.1067H8.99852C8.71349 12.1067 8.43657 12.2126 8.21916 12.4025C8.00114 12.5963 7.85702 12.8611 7.8128 13.1508L7.78266 13.3193L7.27793 16.6185L7.25513 16.7396C7.24901 16.778 7.23861 16.7971 7.22331 16.81C7.20969 16.8218 7.19011 16.8297 7.17098 16.8297H4.70912Z" fill="#28356A"/>
<path fill-rule="evenodd" clip-rule="evenodd" d="M13.3293 4.72046C13.3142 4.82132 13.2966 4.92438 13.277 5.03029C12.6014 8.60903 10.2897 9.84535 7.33752 9.84535H5.83433C5.47326 9.84535 5.16895 10.1157 5.1128 10.4832L4.12521 16.9457C4.08864 17.187 4.26887 17.4044 4.50479 17.4044H7.17091C7.48654 17.4044 7.75474 17.1678 7.80447 16.8466L7.83063 16.7069L8.33261 13.4206L8.36489 13.2404C8.414 12.9181 8.68282 12.6813 8.99845 12.6813H9.39716C11.9802 12.6813 14.0023 11.5995 14.5934 8.46872C14.8402 7.1609 14.7124 6.06884 14.0591 5.30082C13.8614 5.06927 13.6162 4.87703 13.3293 4.72046Z" fill="#298FC2"/>
<path fill-rule="evenodd" clip-rule="evenodd" d="M12.6212 4.43059C12.5179 4.39949 12.4114 4.3714 12.3022 4.34599C12.1923 4.32121 12.0798 4.29927 11.964 4.28001C11.5587 4.21246 11.1146 4.18042 10.6389 4.18042H6.62324C6.52425 4.18042 6.43031 4.20346 6.34631 4.24513C6.16104 4.33699 6.02349 4.51787 5.99014 4.73931L5.13581 10.3213L5.11133 10.484C5.16748 10.1166 5.47179 9.84621 5.83286 9.84621H7.33605C10.2883 9.84621 12.5999 8.60926 13.2755 5.03115C13.2957 4.92524 13.3127 4.82218 13.3278 4.72132C13.1569 4.62772 12.9718 4.5477 12.7725 4.47952C12.7232 4.46263 12.6724 4.44637 12.6212 4.43059Z" fill="#22284F"/>
<path fill-rule="evenodd" clip-rule="evenodd" d="M5.9949 4.73961C6.02825 4.51817 6.16579 4.33729 6.35107 4.24606C6.43568 4.20424 6.52901 4.18119 6.62799 4.18119H10.6437C11.1194 4.18119 11.5635 4.21339 11.9688 4.28095C12.0846 4.30004 12.1971 4.32214 12.3069 4.34692C12.4161 4.37217 12.5226 4.40043 12.6259 4.43136C12.6772 4.44715 12.728 4.46356 12.7777 4.47982C12.977 4.548 13.1623 4.62866 13.3332 4.72162C13.5342 3.39912 13.3315 2.49868 12.6385 1.6833C11.8742 0.785537 10.4951 0.401367 8.73032 0.401367H3.60678C3.24632 0.401367 2.9388 0.671738 2.88311 1.03981L0.749114 14.9945C0.70704 15.2705 0.913432 15.5196 1.18332 15.5196H4.34636L5.9949 4.73961Z" fill="#28356A"/>
</svg>
