<svg width="34" height="14" viewBox="0 0 34 14" fill="none" xmlns="http://www.w3.org/2000/svg">
<path d="M19.9377 4.17438C19.9377 6.10684 18.5803 7.48634 16.6834 7.48634H14.8963C14.8766 7.48634 14.8571 7.49023 14.8389 7.49779C14.8206 7.50534 14.8041 7.51642 14.7902 7.53038C14.7763 7.54434 14.7652 7.5609 14.7578 7.57912C14.7503 7.59734 14.7465 7.61686 14.7466 7.63655V10.1764C14.7466 10.2161 14.7308 10.2542 14.7028 10.2824C14.6747 10.3105 14.6366 10.3264 14.5968 10.3266H13.3463C13.3165 10.3265 13.2875 10.3176 13.2628 10.3011C13.2381 10.2845 13.2188 10.2611 13.2074 10.2337C13.1999 10.2158 13.1959 10.1966 13.1958 10.1771V1.01191C13.1957 0.992217 13.1995 0.972701 13.207 0.95448C13.2145 0.936259 13.2255 0.919694 13.2394 0.905736C13.2533 0.891778 13.2699 0.880702 13.2881 0.873144C13.3063 0.865586 13.3258 0.861696 13.3456 0.861696H16.6914C18.5803 0.859519 19.9377 2.23902 19.9377 4.17438ZM18.3782 4.17438C18.3782 3.06338 17.6191 2.25135 16.5896 2.25135H14.8963C14.8766 2.25135 14.8571 2.25524 14.8389 2.2628C14.8206 2.27036 14.8041 2.28144 14.7902 2.29539C14.7763 2.30935 14.7652 2.32592 14.7578 2.34414C14.7503 2.36236 14.7465 2.38188 14.7466 2.40157V5.93848C14.7466 5.97813 14.7624 6.01615 14.7904 6.04419C14.8185 6.07222 14.8566 6.08797 14.8963 6.08797H16.5896C17.6191 6.09523 18.3782 5.28248 18.3782 4.17438ZM20.3085 8.56831C20.2955 8.27193 20.3569 7.97702 20.4872 7.71037C20.6175 7.44372 20.8125 7.2138 21.0544 7.0415C21.5423 6.67504 22.305 6.48564 23.4246 6.44645L24.617 6.40436V6.05314C24.617 5.34924 24.1444 5.05171 23.3853 5.05171C22.6263 5.05171 22.145 5.32021 22.0345 5.75924C22.0255 5.79012 22.0065 5.81713 21.9804 5.83605C21.9544 5.85496 21.9227 5.8647 21.8905 5.86374H20.7127C20.691 5.86433 20.6695 5.86014 20.6496 5.85148C20.6297 5.84281 20.612 5.82987 20.5977 5.81359C20.5834 5.79731 20.5729 5.77808 20.5669 5.75727C20.5609 5.73646 20.5595 5.71459 20.5629 5.69321C20.7374 4.6526 21.6048 3.86162 23.4391 3.86162C25.3905 3.86162 26.095 4.7687 26.095 6.50015V10.1764C26.0947 10.2165 26.0784 10.2548 26.0498 10.283C26.0212 10.3111 25.9825 10.3268 25.9424 10.3266H24.7551C24.7154 10.3265 24.6773 10.3109 24.649 10.2831C24.6351 10.2691 24.6241 10.2526 24.6166 10.2344C24.6091 10.2163 24.6053 10.1968 24.6053 10.1771V9.90209C24.6058 9.87936 24.5993 9.85704 24.5867 9.83806C24.5742 9.81908 24.5562 9.80434 24.5351 9.79577C24.514 9.78721 24.4908 9.78522 24.4686 9.79008C24.4463 9.79494 24.4261 9.80642 24.4105 9.823C24.0542 10.2098 23.4791 10.4892 22.558 10.4892C21.2028 10.4892 20.3085 9.78526 20.3085 8.56831ZM24.617 7.77153V7.48634L23.0727 7.56761C22.2591 7.60898 21.7858 7.94641 21.7858 8.51461C21.7858 9.02839 22.2199 9.31285 22.9782 9.31285C24.0084 9.31285 24.617 8.75771 24.617 7.77153ZM27.2874 13.1045V12.0392C27.2876 12.0169 27.2928 11.9948 27.3025 11.9747C27.3122 11.9546 27.3262 11.9368 27.3435 11.9227C27.3609 11.9086 27.3811 11.8984 27.4028 11.893C27.4245 11.8875 27.4472 11.8869 27.4692 11.8912C27.6509 11.9253 27.8363 11.9427 28.0217 11.9434C28.3405 11.9589 28.6552 11.8672 28.9155 11.683C29.1758 11.4988 29.3667 11.2328 29.4576 10.9275L29.5347 10.6822C29.5459 10.6492 29.5459 10.6135 29.5347 10.5806L27.0606 4.23824C27.0516 4.21525 27.0484 4.19043 27.0512 4.16592C27.054 4.14142 27.0627 4.11795 27.0765 4.09754C27.0904 4.07712 27.109 4.06038 27.1308 4.04874C27.1526 4.03709 27.1769 4.0309 27.2016 4.0307H28.4012C28.4319 4.03101 28.4617 4.04052 28.4869 4.05799C28.512 4.07547 28.5313 4.10009 28.5423 4.12866L30.2225 8.60169C30.233 8.63141 30.2525 8.65714 30.2783 8.67534C30.3041 8.69353 30.3349 8.70331 30.3664 8.70331C30.398 8.70331 30.4288 8.69353 30.4546 8.67534C30.4804 8.65714 30.4999 8.63141 30.5104 8.60169L31.9696 4.141C31.9797 4.11051 31.9992 4.08399 32.0253 4.06522C32.0514 4.04646 32.0828 4.0364 32.115 4.0365H33.3561C33.3809 4.03665 33.4054 4.0428 33.4274 4.05443C33.4493 4.06606 33.4681 4.08282 33.4822 4.10328C33.4963 4.12374 33.5052 4.14729 33.5082 4.17193C33.5111 4.19657 33.5081 4.22156 33.4993 4.24477L30.8528 11.2881C30.2436 12.9252 29.1988 13.3439 28.0486 13.3439C27.8305 13.3498 27.6124 13.3236 27.4016 13.2663C27.3665 13.257 27.3358 13.2357 27.3149 13.2061C27.2941 13.1765 27.2843 13.1405 27.2874 13.1045ZM5.15973 0.333408C3.58355 0.3222 2.063 0.91431 0.91087 1.98794C0.8616 2.03297 0.830884 2.0947 0.824702 2.1611C0.81852 2.2275 0.837314 2.29381 0.877426 2.34714L1.59066 3.31954C1.61378 3.35192 1.64373 3.37884 1.6784 3.39842C1.71307 3.418 1.75161 3.42976 1.79132 3.43288C1.83104 3.43599 1.87095 3.43038 1.90826 3.41644C1.94556 3.4025 1.97935 3.38057 2.00726 3.3522C2.42153 2.93881 2.91421 2.61198 3.45649 2.39082C3.99877 2.16966 4.57977 2.0586 5.16555 2.06413C7.61133 2.06413 8.88876 3.90153 8.88876 5.7157C8.88876 7.68807 7.54663 9.07555 5.61777 9.10313C4.12733 9.10313 3.00404 8.11694 3.00404 6.81437C3.00559 6.4853 3.08028 6.16067 3.22273 5.86389C3.36518 5.56711 3.57183 5.30558 3.82778 5.09816C3.88189 5.05304 3.9161 4.98853 3.92303 4.9185C3.92996 4.84847 3.90908 4.77852 3.86486 4.72371L3.11528 3.77889C3.09261 3.75032 3.06443 3.72657 3.03242 3.70904C3.0004 3.69151 2.96519 3.68057 2.92887 3.67685C2.89254 3.67313 2.85584 3.67671 2.82092 3.68738C2.78601 3.69805 2.75359 3.7156 2.72558 3.73898C2.26522 4.10917 1.89373 4.57752 1.63834 5.10968C1.38295 5.64184 1.25015 6.22431 1.24967 6.81437C1.24967 9.05669 3.1589 10.8157 5.60468 10.8302H5.6374C8.54123 10.7925 10.6409 8.64596 10.6409 5.71207C10.6409 3.10692 8.71863 0.333408 5.16046 0.333408H5.15973Z" fill="white"/>
</svg>
