<svg width="32" height="11" viewBox="0 0 32 11" fill="none" xmlns="http://www.w3.org/2000/svg">
<path fill-rule="evenodd" clip-rule="evenodd" d="M8.30872 10.4834H5.64318L3.64434 2.64831C3.54947 2.2879 3.34802 1.96927 3.05171 1.8191C2.31222 1.44171 1.49735 1.14136 0.608398 0.989883V0.688232H4.90239C5.49502 0.688232 5.93949 1.14136 6.01357 1.66762L7.05068 7.31933L9.71493 0.688232H12.3064L8.30872 10.4834ZM13.7921 10.4834H11.2748L13.3477 0.688232H15.8651L13.7921 10.4834ZM19.1213 3.40065C19.1954 2.87308 19.6399 2.57143 20.1584 2.57143C20.9733 2.49569 21.861 2.64717 22.6017 3.02326L23.0462 0.914311C22.3054 0.61266 21.4906 0.461182 20.7511 0.461182C18.3078 0.461182 16.5299 1.81796 16.5299 3.70099C16.5299 5.13351 17.7892 5.88567 18.6782 6.3388C19.6399 6.79063 20.0103 7.09228 19.9362 7.5441C19.9362 8.22184 19.1954 8.52349 18.4559 8.52349C17.567 8.52349 16.678 8.29757 15.8645 7.92018L15.42 10.0304C16.3089 10.4065 17.2707 10.558 18.1596 10.558C20.8992 10.6324 22.6017 9.27696 22.6017 7.24245C22.6017 4.68038 19.1213 4.5302 19.1213 3.40065ZM31.4118 10.4834L29.413 0.688232H27.266C26.8215 0.688232 26.377 0.989883 26.2289 1.44171L22.5275 10.4834H25.119L25.6362 9.05219H28.8203L29.1167 10.4834H31.4118ZM27.6321 3.32454L28.3716 7.01618H26.2987L27.6321 3.32454Z" fill="#172B85"/>
</svg>
